# AST/ASF file generated using VICON BodyLanguage
# -----------------------------------------------
:version 1.10
:name VICON
:units
  mass 1.0
  length 0.45
  angle deg
:documentation
   .ast/.asf automatically generated from VICON data using
   VICON BodyBuilder and BodyLanguage model FoxedUp or BRILLIANT.MOD
:root
   order TX TY TZ RX RY RZ
   axis XYZ
   position 0 0 0  
   orientation 0 0 0 
:bonedata
  begin
     id 1 
     name lhipjoint
     direction 0.646657 -0.683706 0.338203 
     length 2.4948 
     axis 0 0 0  XYZ
  end
  begin
     id 2 
     name lfemur
     direction 0.34202 -0.939693 0  
     length 6.79491  
     axis 0 0 20  XYZ
    dof rx ry rz
    limits (-160.0 20.0)
           (-70.0 70.0)
           (-60.0 70.0)
  end
  begin
     id 3 
     name ltibia
     direction 0.34202 -0.939693 0   
     length 7.56807   
     axis 0 0 20   XYZ
    dof rx
    limits (-10.0 170.0)
  end
  begin
     id 4 
     name lfoot
     direction 0.0679796 -0.186772 0.980048   
     length 2.53018   
     axis -90 7.62852e-016 20   XYZ
    dof rx rz
    limits (-45.0 90.0)
           (-70.0 20.0)
  end
  begin
     id 5 
     name ltoes
     direction 1.53625e-011 -4.21881e-011 1   
     length 1.26912   
     axis -90 7.62852e-016 20   XYZ
    dof rx
    limits (-90.0 20.0)
  end
  begin
     id 6 
     name rhipjoint
     direction -0.618868 -0.704065 0.348274   
     length 2.42265  
     axis 0 0 0  XYZ 
  end
  begin
     id 7 
     name rfemur
     direction -0.34202 -0.939693 0   
     length 6.73814   
     axis 0 0 -20   XYZ
    dof rx ry rz
    limits (-160.0 20.0)
           (-70.0 70.0)
           (-70.0 60.0)
  end
  begin
     id 8 
     name rtibia
     direction -0.34202 -0.939693 0   
     length 7.66799   
     axis 0 0 -20   XYZ
    dof rx
    limits (-10.0 170.0)
 end
 begin
     id 9 
     name rfoot
     direction -0.0727352 -0.199838 0.977125   
     length 2.57224  
     axis -90 -7.62852e-016 -20   XYZ
    dof rx rz
    limits (-45.0 90.0)
           (-20.0 70.0)
  end
  begin
     id 10 
     name rtoes
     direction -1.53501e-011 -4.21858e-011 1   
     length 1.28858   
     axis -90 -7.62852e-016 -20   XYZ
    dof rx
    limits (-90.0 20.0)
  end
  begin
     id 11 
     name lowerback
     direction -0.0172471 0.995767 -0.0902851   
     length 2.20206   
     axis 0 0 0   XYZ
    dof rx ry rz
    limits (-20.0 45.0)
           (-30.0 30.0)
           (-30.0 30.0)
  end
  begin
     id 12 
     name upperback
     direction -0.000110737 0.999714 0.0239043   
     length 2.19523   
     axis 0 0 0   XYZ
    dof rx ry rz
    limits (-20.0 45.0)
           (-30.0 30.0)
           (-30.0 30.0)
  end
  begin
     id 13 
     name thorax
     direction 0.00704869 0.997783 0.0661741   
     length 2.21977   
     axis 0 0 0   XYZ
    dof rx ry rz
    limits (-20.0 45.0)
           (-30.0 30.0)
           (-30.0 30.0)
  end
  begin
     id 14 
     name lowerneck
     direction -0.00407501 0.995527 0.0943846   
     length 1.83142   
     axis 0 0 0   XYZ
    dof rx ry rz
    limits (-20.0 45.0)
           (-30.0 30.0)
           (-30.0 30.0)
  end
  begin
     id 15 
     name upperneck
     direction 0.0640586 0.986486 -0.150807   
     length 1.84616   
     axis 0 0 0   XYZ
    dof rx ry rz
    limits (-20.0 45.0)
           (-30.0 30.0)
           (-30.0 30.0)
  end
  begin
     id 16
     name head
     direction 0.0188017 0.99791 -0.0618239  
     length 1.85932  
     axis 0 0 0   XYZ
    dof rx ry rz
    limits (-20.0 45.0)
           (-30.0 30.0)
           (-30.0 30.0)
  end
  begin
     id 17 
     name lclavicle
     direction 0.976074 0.206905 0.066852  
     length 3.81043  
     axis 0 0 0   XYZ
    dof ry rz
    limits (-20.0 10.0)
           (0.0 20.0)
  end
  begin
     id 18 
     name lhumerus
     direction 1 -4.48971e-011 1.86916e-027   
     length 5.37587   
     axis 180 -30 -90   XYZ
    dof rx ry rz
    limits (-60.0 90.0)
           (-90.0 90.0)
           (-90.0 90.0)
  end
  begin
     id 19
     name lradius
     direction 1 -4.48968e-011 1.69187e-027   
     length 3.35977   
     axis 180 -30 -90   XYZ
    dof rx
    limits (-10.0 170.0)
  end
  begin
     id 20
     name lwrist
     direction 1 -4.48968e-011 5.8978e-027   
     length 1.67988   
     axis -3.27506e-015 90 90   XYZ
    dof ry
    limits (-180.0 0.0)
 end
  begin
     id 21 
     name lhand
     direction 1 -4.49028e-011 1.18071e-026   
     length 0.561859   
     axis -7.52654e-015 90 90   XYZ
    dof rx rz
    limits (-90.0 90.0)
           (-45.0 45.0)
  end
  begin
     id 22 
     name lfingers
     direction 1 -4.48927e-011 2.35758e-026   
     length 0.452985   
     axis -1.50534e-014 90 90   XYZ
    dof rx
    limits (0.0 90.0)
  end
  begin
     id 23
     name lthumb
     direction 0.707107 -6.34898e-011 0.707107   
     length 0.650399   
     axis -90 45 5.69224e-014   XYZ
    dof rx rz
    limits (-45.0 45.0)
           (-45.0 45.0)
  end
  begin
     id 24 
     name rclavicle
     direction -0.988403 0.151789 0.00439714   
     length 3.6942  
     axis 0 0 0   XYZ 
    dof ry rz
    limits (-10.0 20.0)
           (-20.0 0.0)
  end
  begin
     id 25 
     name rhumerus
     direction -1 -4.48978e-011 1.62495e-027  
     length 5.22819   
     axis 180 30 90   XYZ
    dof rx ry rz
    limits (-90.0 60.0)
           (-90.0 90.0)
           (-90.0 90.0)
  end
  begin
     id 26 
     name rradius
     direction -1 -4.48961e-011 3.47796e-027   
     length 3.40764   
     axis 180 30 90   XYZ
    dof rx
    limits (-10.0 170.0)
  end
  begin
     id 27 
     name rwrist
     direction -1 -4.48949e-011 5.89602e-027   
     length 1.70382   
     axis -3.27506e-015 -90 -90   XYZ
    dof ry
    limits (-180.0 0.0)
  end
  begin
     id 28
     name rhand
     direction -1 -4.48977e-011 1.17973e-026   
     length 0.583255   
     axis -7.52654e-015 -90 -90   XYZ
    dof rx rz
    limits (-90.0 90.0)
           (-45.0 45.0)
  end
  begin
     id 29
     name rfingers
     direction -1 -4.49099e-011 2.36408e-026   
     length 0.470235   
     axis -1.50534e-014 -90 -90   XYZ
    dof rx
    limits (0.0 90.0)
  end
  begin
     id 30
     name rthumb
     direction -0.707107 -6.35011e-011 0.707107   
     length 0.675167   
     axis -90 -45 -5.69224e-014   XYZ
    dof rx rz
    limits (-45.0 45.0)
           (-45.0 45.0)
  end
:hierarchy
  begin
    root lhipjoint rhipjoint lowerback
    lhipjoint lfemur
    lfemur ltibia
    ltibia lfoot
    lfoot ltoes
    rhipjoint rfemur
    rfemur rtibia
    rtibia rfoot
    rfoot rtoes
    lowerback upperback
    upperback thorax
    thorax lowerneck lclavicle rclavicle
    lowerneck upperneck
    upperneck head
    lclavicle lhumerus
    lhumerus lradius
    lradius lwrist
    lwrist lhand lthumb
    lhand lfingers
    rclavicle rhumerus
    rhumerus rradius
    rradius rwrist
    rwrist rhand rthumb
    rhand rfingers
  end

#!OML:ASF G:\JayActor3\Patient Classification 1\Patient 1\Session 2\male.ASF
:FULLY-SPECIFIED
:DEGREES
683
root 49.5147 16.6414 -7.64256 19.4961 -87.3099 -19.2177
lowerback -3.23015 -0.521328 -1.86669
upperback 4.70661 -0.659871 0.431103
thorax 6.73909 -0.456497 1.43369
lowerneck -10.5807 -2.6708 -3.50199
upperneck 7.64217 -3.93925 8.10046
head 4.24993 -1.61762 2.79376
rclavicle 4.34841e-015 3.57812e-015
rhumerus -32.9727 -2.16354 -84.7177
rradius 32.1001
rwrist -7.8044
rhand -23.4298 3.70465
rfingers 7.12502
rthumb 3.02803 -26.2536
lclavicle 4.34841e-015 3.57812e-015
lhumerus -29.0626 3.82547 84.1886
lradius 28.7331
lwrist 13.0718
lhand -18.8887 18.4286
lfingers 7.12502
lthumb 7.41259 48.2787
rfemur -12.1849 0.571061 21.6359
rtibia 36.0038
rfoot -25.6035 -9.4878
rtoes 18.0673
lfemur -6.22007 1.49748 -17.5661
ltibia 24.6485
lfoot -15.3495 6.83457
ltoes -8.74116
684
root 49.519 16.6413 -7.64189 19.427 -87.322 -19.1657
lowerback -3.20209 -0.520164 -1.87567
upperback 4.71412 -0.658226 0.424873
thorax 6.73082 -0.456113 1.43254
lowerneck -10.5201 -2.66913 -3.51997
upperneck 7.59587 -3.9338 8.11465
head 4.22609 -1.61695 2.80201
rclavicle 6.21202e-016 5.1684e-015
rhumerus -32.9686 -2.20539 -84.718
rradius 32.0548
rwrist -7.78156
rhand -23.4208 3.70004
rfingers 7.12502
rthumb 3.03675 -26.2581
lclavicle 6.21202e-016 5.1684e-015
lhumerus -29.0081 3.84146 84.1849
lradius 28.7032
lwrist 13.0529
lhand -18.8821 18.4023
lfingers 7.12502
lthumb 7.41897 48.2522
rfemur -12.1891 0.578005 21.6265
rtibia 36.0139
rfoot -25.5958 -9.49121
rtoes 18.0742
lfemur -6.21648 1.50459 -17.5761
ltibia 24.6495
lfoot -15.3391 6.83916
ltoes -8.73269
685
root 49.5234 16.6413 -7.64113 19.3525 -87.3355 -19.1082
lowerback -3.16847 -0.518883 -1.8827
upperback 4.71786 -0.656521 0.417116
thorax 6.71527 -0.455427 1.42877
lowerneck -10.456 -2.66833 -3.53785
upperneck 7.54639 -3.92968 8.13094
head 4.20081 -1.61698 2.81082
rclavicle -4.22417e-016 -1.2921e-015
rhumerus -32.9694 -2.24633 -84.7207
rradius 32.0095
rwrist -7.76212
rhand -23.4108 3.7006
rfingers 7.12502
rthumb 3.04641 -26.2574
lclavicle -4.22417e-016 -1.2921e-015
lhumerus -28.9727 3.84022 84.1833
lradius 28.705
lwrist 13.0537
lhand -18.8738 18.367
lfingers 7.12502
lthumb 7.42697 48.2166
rfemur -12.1939 0.584032 21.6158
rtibia 36.0248
rfoot -25.5863 -9.49287
rtoes 18.0821
lfemur -6.21328 1.51047 -17.5876
ltibia 24.6485
lfoot -15.3258 6.84762
ltoes -8.72685
686
root 49.5277 16.6413 -7.64026 19.274 -87.3522 -19.0464
lowerback -3.13441 -0.517096 -1.88869
upperback 4.71955 -0.654125 0.408407
thorax 6.69721 -0.454257 1.42351
lowerneck -10.3857 -2.66691 -3.5509
upperneck 7.48964 -3.92461 8.14321
head 4.17208 -1.61689 2.81771
rclavicle -7.1811e-015 -3.97569e-015
rhumerus -32.9745 -2.28358 -84.7251
rradius 31.9676
rwrist -7.74887
rhand -23.3997 3.70596
rfingers 7.12502
rthumb 3.0571 -26.2519
lclavicle -7.1811e-015 -3.97569e-015
lhumerus -28.955 3.8178 84.1864
lradius 28.7399
lwrist 13.08
lhand -18.8644 18.3268
lfingers 7.12502
lthumb 7.43609 48.1761
rfemur -12.1991 0.588094 21.6025
rtibia 36.0364
rfoot -25.574 -9.49013
rtoes 18.0867
lfemur -6.20916 1.51758 -17.6009
ltibia 24.6456
lfoot -15.3123 6.85812
ltoes -8.73121
687
root 49.5319 16.6413 -7.6393 19.2628 -87.3698 -19.0507
lowerback -3.10078 -0.515672 -1.89069
upperback 4.71938 -0.65249 0.400804
thorax 6.67742 -0.45324 1.4171
lowerneck -10.3167 -2.66261 -3.55795
upperneck 7.43398 -3.91556 8.14628
head 4.14332 -1.61507 2.82104
rclavicle -1.66482e-015 -8.15017e-015
rhumerus -32.9838 -2.31558 -84.7302
rradius 31.9301
rwrist -7.74117
rhand -23.3901 3.71814
rfingers 7.12502
rthumb 3.06638 -26.2396
lclavicle -1.66482e-015 -8.15017e-015
lhumerus -28.9499 3.78647 84.1932
lradius 28.7988
lwrist 13.1214
lhand -18.8547 18.2772
lfingers 7.12502
lthumb 7.44545 48.1262
rfemur -12.2058 0.590359 21.5913
rtibia 36.0478
rfoot -25.5604 -9.48425
rtoes 18.091
lfemur -6.20474 1.52575 -17.6115
ltibia 24.6421
lfoot -15.3007 6.86768
ltoes -8.72994
688
root 49.5361 16.6413 -7.63827 19.3109 -87.39 -19.1123
lowerback -3.07136 -0.51432 -1.89008
upperback 4.71824 -0.65106 0.394226
thorax 6.65901 -0.452206 1.41025
lowerneck -10.2486 -2.65396 -3.55525
upperneck 7.37739 -3.90052 8.13638
head 4.11363 -1.61067 2.81919
rclavicle -8.3738e-015 -4.37326e-015
rhumerus -32.9959 -2.34096 -84.7359
rradius 31.8989
rwrist -7.7402
rhand -23.3804 3.73585
rfingers 7.12502
rthumb 3.07577 -26.2217
lclavicle -8.3738e-015 -4.37326e-015
lhumerus -28.9549 3.75092 84.203
lradius 28.8779
lwrist 13.1732
lhand -18.8455 18.2163
lfingers 7.12502
lthumb 7.45432 48.0649
rfemur -12.2154 0.592792 21.5811
rtibia 36.0594
rfoot -25.5445 -9.47783
rtoes 18.0842
lfemur -6.20001 1.53418 -17.6207
ltibia 24.6379
lfoot -15.2944 6.87674
ltoes -8.71456
689
root 49.5402 16.6412 -7.63716 19.3938 -87.4115 -19.2067
lowerback -3.04574 -0.513577 -1.88826
upperback 4.71703 -0.650512 0.389077
thorax 6.64278 -0.451597 1.4041
lowerneck -10.1825 -2.6414 -3.54745
upperneck 7.31867 -3.87994 8.11879
head 4.08301 -1.60375 2.81449
rclavicle 4.42296e-015 3.18055e-015
rhumerus -33.0073 -2.36159 -84.7414
rradius 31.8741
rwrist -7.74323
rhand -23.3682 3.74929
rfingers 7.12502
rthumb 3.08753 -26.2081
lclavicle 4.42296e-015 3.18055e-015
lhumerus -28.9668 3.71187 84.2172
lradius 28.9754
lwrist 13.2334
lhand -18.8382 18.1569
lfingers 7.12502
lthumb 7.46135 48.0053
rfemur -12.2272 0.596568 21.5716
rtibia 36.0705
rfoot -25.5283 -9.47211
rtoes 18.0717
lfemur -6.19668 1.54645 -17.6285
ltibia 24.6345
lfoot -15.2901 6.88193
ltoes -8.69527
690
root 49.5442 16.6411 -7.63599 19.4675 -87.4331 -19.2894
lowerback -3.02312 -0.514055 -1.88755
upperback 4.71421 -0.651503 0.3853
thorax 6.62666 -0.451805 1.39987
lowerneck -10.1249 -2.62449 -3.52871
upperneck 7.26647 -3.85383 8.08722
head 4.05498 -1.59415 2.80399
rclavicle -8.17502e-015 -7.7526e-015
rhumerus -33.0207 -2.37434 -84.7466
rradius 31.8556
rwrist -7.74911
rhand -23.3548 3.76651
rfingers 7.12502
rthumb 3.10046 -26.1907
lclavicle -8.17502e-015 -7.7526e-015
lhumerus -28.9862 3.6697 84.2353
lradius 29.086
lwrist 13.2967
lhand -18.8278 18.0939
lfingers 7.12502
lthumb 7.47134 47.9419
rfemur -12.2413 0.597345 21.561
rtibia 36.0812
rfoot -25.5117 -9.46512
rtoes 18.0489
lfemur -6.19519 1.55861 -17.6371
ltibia 24.632
lfoot -15.2886 6.88624
ltoes -8.6721
691
root 49.5482 16.641 -7.63476 19.5782 -87.4551 -19.4069
lowerback -3.003 -0.514566 -1.88539
upperback 4.70931 -0.652596 0.382824
thorax 6.60978 -0.451973 1.39616
lowerneck -10.0706 -2.60479 -3.50525
upperneck 7.21975 -3.82453 8.05158
head 4.02881 -1.58287 2.79165
rclavicle 4.09993e-015 5.96354e-015
rhumerus -33.0372 -2.38289 -84.7515
rradius 31.8438
rwrist -7.75484
rhand -23.3403 3.77777
rfingers 7.12502
rthumb 3.11445 -26.1792
lclavicle 4.09993e-015 5.96354e-015
lhumerus -29.0158 3.61861 84.258
lradius 29.2108
lwrist 13.3638
lhand -18.8165 18.0303
lfingers 7.12502
lthumb 7.48226 47.878
rfemur -12.2568 0.601204 21.5516
rtibia 36.0906
rfoot -25.4963 -9.45726
rtoes 18.0324
lfemur -6.19617 1.5731 -17.6439
ltibia 24.6316
lfoot -15.2885 6.88714
ltoes -8.65155
